#!OML:ASF F:\VICON\USERDATA\INSTALL\rory3\rory3.ASF
:FULLY-SPECIFIED
:DEGREES
142
root -6.73837 16.8684 -0.0267465 -0.560876 25.6561 -8.99992
lowerback 5.6092 1.90934 4.34193
upperback -0.409591 2.97996 3.38965
thorax -3.53315 1.43918 0.815952
lowerneck -15.3842 -2.95564 -8.90152
upperneck 22.2229 -3.07935 5.44278
head 9.81728 -1.5358 3.00453
rclavicle -3.61912e-014 -7.95139e-016
rhumerus -30.0074 -9.57193 -77.4023
rradius 37.0697
rwrist -0.734847
rhand -16.5304 13.2584
rfingers 7.12502
rthumb 9.68845 -16.4988
lclavicle -3.61912e-014 -7.95139e-016
lhumerus -50.7114 30.2937 64.6307
lradius 20.4014
lwrist -12.6114
lhand -20.9756 21.1216
lfingers 7.12502
lthumb 5.39789 51.0329
rfemur 18.8928 5.88895 28.7573
rtibia 12.0964
rfoot -12.0451 -6.89949
rtoes -18.8236
lfemur -38.3726 0.200773 -15.5568
ltibia 21.8009
lfoot -8.17389 8.53402
ltoes 6.88555
143
root -6.60122 16.8654 0.21616 -0.565842 25.9871 -8.72508
lowerback 5.26725 1.75393 4.08958
upperback -0.327946 2.72776 3.37747
thorax -3.27037 1.32319 0.977021
lowerneck -15.4883 -2.89443 -9.07302
upperneck 22.2652 -2.94352 5.45691
head 9.84448 -1.48517 3.05671
rclavicle -4.97334e-014 2.3059e-014
rhumerus -29.8633 -9.50382 -77.4486
rradius 37.0412
rwrist -0.922203
rhand -17.0692 13.8319
rfingers 7.12502
rthumb 9.1686 -15.9488
lclavicle -4.97334e-014 2.3059e-014
lhumerus -50.7509 29.8135 65.1168
lradius 20.3192
lwrist -11.7572
lhand -21.5002 22.7541
lfingers 7.12502
lthumb 4.89133 52.6777
rfemur 19.0444 6.10042 28.6173
rtibia 13.6999
rfoot -11.2637 -6.57763
rtoes -12.7944
lfemur -37.8624 0.4356 -16.2631
ltibia 22.9756
lfoot -8.37231 7.20863
ltoes 9.14678
144
root -6.45689 16.8737 0.454284 -0.729781 26.24 -8.67142
lowerback 5.19372 1.63345 4.12251
upperback -0.325556 2.56639 3.42782
thorax -3.22931 1.24371 1.02552
lowerneck -15.7462 -2.91354 -9.30581
upperneck 22.5049 -2.88719 5.44971
head 9.97891 -1.47926 3.10417
rclavicle -4.17448e-015 -4.77083e-015
rhumerus -29.7663 -9.41022 -77.3682
rradius 36.9019
rwrist -1.13796
rhand -17.1801 14.1671
rfingers 7.12502
rthumb 9.06158 -15.6182
lclavicle -4.17448e-015 -4.77083e-015
lhumerus -51.1691 30.1521 64.627
lradius 19.7551
lwrist -12.3822
lhand -21.6612 22.9544
lfingers 7.12502
lthumb 4.73596 52.8815
rfemur 19.2626 6.32136 28.6432
rtibia 15.0091
rfoot -9.95687 -5.92565
rtoes -4.50364
lfemur -37.3593 0.376093 -16.636
ltibia 24.3874
lfoot -8.50082 6.40592
ltoes 8.87573
145
root -6.29665 16.9095 0.691841 -0.588937 26.6294 -8.38058
lowerback 4.953 1.6118 4.16714
upperback -0.456885 2.52765 3.3408
thorax -3.22433 1.22184 0.919271
lowerneck -15.4919 -2.96818 -8.94058
upperneck 22.4004 -2.94354 4.89841
head 9.88522 -1.53808 2.83785
rclavicle -2.42269e-014 -2.3059e-014
rhumerus -29.972 -9.67429 -77.0708
rradius 36.861
rwrist -1.60959
rhand -16.8425 13.9662
rfingers 7.12502
rthumb 9.38728 -15.8048
lclavicle -2.42269e-014 -2.3059e-014
lhumerus -51.9133 31.1337 63.1764
lradius 18.8616
lwrist -15.0301
lhand -21.0235 21.6041
lfingers 7.12502
lthumb 5.35167 51.5165
rfemur 19.2436 6.14506 28.2241
rtibia 16.2629
rfoot -8.28639 -4.98072
rtoes -24.5846
lfemur -37.2566 0.415156 -17.4338
ltibia 25.8475
lfoot -7.35447 5.81517
ltoes 7.37924
146
root -6.13039 16.958 0.923125 -0.452183 27.0598 -8.30201
lowerback 4.74523 1.56109 4.40409
upperback -0.772034 2.47598 3.29751
thorax -3.42323 1.18583 0.748594
lowerneck -15.2946 -3.05289 -9.01412
upperneck 22.8747 -3.04886 4.83294
head 10.0268 -1.60636 2.82132
rclavicle 1.64619e-014 -4.17448e-015
rhumerus -30.5261 -9.93781 -76.7617
rradius 36.7537
rwrist -1.96311
rhand -17.2809 14.4801
rfingers 7.12502
rthumb 8.9643 -15.3095
lclavicle 1.64619e-014 -4.17448e-015
lhumerus -52.3246 30.9397 63.0809
lradius 18.5586
lwrist -15.3104
lhand -21.0853 22.444
lfingers 7.12502
lthumb 5.29201 52.358
rfemur 18.8794 6.00169 27.9481
rtibia 17.6435
rfoot -6.17859 -3.77903
rtoes -23.7919
lfemur -37.4294 0.417776 -17.9542
ltibia 27.209
lfoot -6.03868 5.80813
ltoes 5.88091
147
root -5.96915 16.9802 1.14988 -0.374331 27.4408 -8.3618
lowerback 4.71882 1.47218 4.7811
upperback -1.15904 2.39915 3.25141
thorax -3.7954 1.12932 0.493146
lowerneck -14.9511 -2.98562 -8.8856
upperneck 23.233 -2.99237 4.71924
head 10.0815 -1.58798 2.77442
rclavicle -1.18401e-014 4.37326e-015
rhumerus -31.182 -10.2778 -76.5523
rradius 36.5797
rwrist -1.92963
rhand -17.7397 15.1666
rfingers 7.12502
rthumb 8.52159 -14.6415
lclavicle -1.18401e-014 4.37326e-015
lhumerus -52.1472 29.7174 64.3489
lradius 18.6067
lwrist -13.1341
lhand -22.1375 25.4883
lfingers 7.12502
lthumb 4.27597 55.4252
rfemur 18.1321 5.79949 27.7876
rtibia 19.5207
rfoot -3.6196 -2.54113
rtoes -23.3113
lfemur -37.5421 0.127093 -18.1405
ltibia 28.3108
lfoot -5.5857 5.73288
ltoes 3.50433
148
root -5.81019 16.9988 1.38091 -0.178352 27.9501 -8.18751
lowerback 4.44944 1.30869 4.7749
upperback -1.34143 2.17325 3.28391
thorax -3.83999 1.0156 0.552461
lowerneck -14.8969 -2.95353 -8.9129
upperneck 23.4314 -2.90329 4.55235
head 10.1347 -1.5706 2.73466
rclavicle 6.12629e-014 1.70955e-014
rhumerus -31.3318 -10.6488 -76.2912
rradius 36.2361
rwrist -1.65757
rhand -17.8718 15.0425
rfingers 7.12502
rthumb 8.3941 -14.7707
lclavicle 6.12629e-014 1.70955e-014
lhumerus -52.2028 30.0122 64.4218
lradius 18.198
lwrist -13.0983
lhand -22.8064 27.2156
lfingers 7.12502
lthumb 3.63003 57.1644
rfemur 16.9656 5.1873 27.3596
rtibia 22.1875
rfoot -0.917301 -1.05383
rtoes -25.6579
lfemur -37.4487 -0.0374741 -18.6479
ltibia 29.0697
lfoot -5.30969 4.57014
ltoes 2.55099
149
root -5.65677 17.0516 1.61295 0.250852 28.5901 -7.51883
lowerback 4.10034 1.0997 4.20305
upperback -1.40078 1.83805 3.24989
thorax -3.72699 0.863457 0.867242
lowerneck -15.1934 -2.98874 -9.05428
upperneck 23.7143 -2.86133 4.43847
head 10.2929 -1.57758 2.72598
rclavicle 1.72446e-014 4.77083e-015
rhumerus -31.1429 -10.9651 -76.0113
rradius 35.7046
rwrist -1.36064
rhand -17.7983 14.8197
rfingers 7.12502
rthumb 8.46495 -14.9906
lclavicle 1.72446e-014 4.77083e-015
lhumerus -53.4055 32.6016 61.5433
lradius 17.1123
lwrist -17.8
lhand -21.3025 25.3986
lfingers 7.12502
lthumb 5.08226 55.3176
rfemur 15.3144 5.09999 26.6314
rtibia 25.3471
rfoot 2.41332 0.644263
rtoes -25.8479
lfemur -37.1083 0.164624 -19.762
ltibia 29.727
lfoot -4.80066 3.65589
ltoes 3.55847
150
root -5.5138 17.1105 1.84401 0.262443 29.2293 -7.01283
lowerback 4.31919 0.951865 3.8709
upperback -1.52932 1.63516 3.08717
thorax -3.99052 0.7633 0.894116
lowerneck -15.2819 -3.02387 -9.2012
upperneck 23.951 -2.92026 4.64895
head 10.406 -1.59507 2.82199
rclavicle -1.29334e-014 -3.97569e-016
rhumerus -31.7369 -11.6848 -75.8027
rradius 35.4954
rwrist -1.14733
rhand -17.7989 14.6641
rfingers 7.12502
rthumb 8.46437 -15.1463
lclavicle -1.29334e-014 -3.97569e-016
lhumerus -55.4039 35.18 57.2821
lradius 16.0208
lwrist -24.2692
lhand -18.689 21.605
lfingers 7.12502
lthumb 7.60533 51.4482
rfemur 13.53 5.63965 26.225
rtibia 28.9895
rfoot 6.19101 1.6214
rtoes -21.2038
lfemur -36.1981 0.474556 -20.66
ltibia 30.2785
lfoot -4.13529 3.76192
ltoes 4.09772
